# xmcd
#
# Track frame offsets: 
#        150
#        12408
#        28556
#        44749
#        58428
#        77056
#        96057
#        113296
#        130582
#        154864
#        168304
#        183975
#        200112
#        211209
#        224463
#        237732
#        258148
#
# Disc length: 3514 seconds
#
# Revision: 0
# Processed by: cddbd v1.5.2PL0 Copyright (c) Steve Scherf et al.
# Submitted via: ExactAudioCopy v0.99pb3
#
DISCID=ef0db811
DTITLE=Blue Lunch - Eyes Wide Open
DYEAR=1999
DGENRE=Blues
TTITLE0=All Mine, All Fine
TTITLE1=Leo The Louse
TTITLE2=It's Obdacious
TTITLE3=Wide Clyde
TTITLE4=Louisiana Hop
TTITLE5=Eyes Wide Open
TTITLE6=Closer To The Bone
TTITLE7=Annie Had A Baby
TTITLE8=Prisoner Of Love
TTITLE9=Kiss Me Baby
TTITLE10=Diminishing Returns
TTITLE11=Slow Down Little Girl
TTITLE12=Why Did It Happen To Me
TTITLE13=Whole Lotta Meat
TTITLE14=No Buts, No Maybes
TTITLE15=Rib Joint
TTITLE16=Get Smart
EXTD=
EXTT0=
EXTT1=
EXTT2=
EXTT3=
EXTT4=
EXTT5=
EXTT6=
EXTT7=
EXTT8=
EXTT9=
EXTT10=
EXTT11=
EXTT12=
EXTT13=
EXTT14=
EXTT15=
EXTT16=
PLAYORDER=
